<svg width="222" height="30" viewBox="0 0 222 30" fill="none" xmlns="http://www.w3.org/2000/svg">
<path d="M16.12 6.584H26.68C26.936 6.584 27.064 6.712 27.064 6.968V7.96C27.064 8.216 26.936 8.344 26.68 8.344H16.12V10.584H29.176C29.432 10.584 29.56 10.712 29.56 10.968V12.024C29.56 12.28 29.432 12.408 29.176 12.408H0.792C0.536 12.408 0.408 12.28 0.408 12.024V10.968C0.408 10.712 0.536 10.584 0.792 10.584H13.688V8.344H3.32C3.064 8.344 2.936 8.216 2.936 7.96V6.968C2.936 6.712 3.064 6.584 3.32 6.584H13.688V4.44H2.072C1.816 4.44 1.688 4.312 1.688 4.056V3C1.688 2.744 1.816 2.616 2.072 2.616H13.688V0.503998C13.688 0.247999 13.816 0.119999 14.072 0.119999H15.736C15.992 0.119999 16.12 0.247999 16.12 0.503998V2.616H27.896C28.152 2.616 28.28 2.744 28.28 3V4.056C28.28 4.312 28.152 4.44 27.896 4.44H16.12V6.584ZM4.632 29.464C4.376 29.464 4.248 29.336 4.248 29.08V14.776C4.248 14.52 4.376 14.392 4.632 14.392H25.4C25.656 14.392 25.784 14.52 25.784 14.776V24.984C25.784 26.0293 25.6133 26.8613 25.272 27.48C24.9307 28.12 24.312 28.6 23.416 28.92C22.52 29.24 21.24 29.4 19.576 29.4L18.616 29.368C18.4027 29.3467 18.2533 29.24 18.168 29.048L17.688 27.768C17.6667 27.7253 17.656 27.6613 17.656 27.576C17.656 27.4053 17.784 27.32 18.04 27.32C18.4027 27.3413 18.904 27.352 19.544 27.352C20.6107 27.352 21.4213 27.256 21.976 27.064C22.552 26.8933 22.9467 26.6267 23.16 26.264C23.3733 25.88 23.48 25.3787 23.48 24.76V24.28H6.552V29.08C6.552 29.336 6.424 29.464 6.168 29.464H4.632ZM23.48 16.152H6.552V18.52H23.48V16.152ZM23.48 20.216H6.552V22.584H23.48V20.216ZM34.392 5.528C34.392 5.272 34.52 5.144 34.776 5.144H36.536C36.792 5.144 36.92 5.272 36.92 5.528V25.56H45.688V0.599998C45.688 0.343999 45.816 0.216 46.072 0.216H47.832C48.088 0.216 48.216 0.343999 48.216 0.599998V25.56H57.048V5.528C57.048 5.272 57.176 5.144 57.432 5.144H59.192C59.448 5.144 59.576 5.272 59.576 5.528V27.608C59.576 27.864 59.448 27.992 59.192 27.992H34.776C34.52 27.992 34.392 27.864 34.392 27.608V5.528ZM64.632 9.976C64.5893 9.89067 64.568 9.816 64.568 9.752C64.568 9.624 64.6533 9.528 64.824 9.464C67.4267 8.52533 69.848 7.23467 72.088 5.592C74.328 3.94933 76.184 2.24266 77.656 0.471998C77.784 0.322666 77.944 0.247999 78.136 0.247999H79.8C79.992 0.247999 80.152 0.311999 80.28 0.439999C81.944 2.25333 83.9173 3.94933 86.2 5.528C88.4827 7.10667 90.8187 8.32267 93.208 9.176C93.464 9.24 93.528 9.41067 93.4 9.688L92.44 11.288C92.312 11.48 92.1413 11.5333 91.928 11.448C89.432 10.4453 87.0853 9.13333 84.888 7.512C82.6907 5.89067 80.728 4.184 79 2.392C77.3787 4.26933 75.48 6.05066 73.304 7.736C71.128 9.4 68.7173 10.7333 66.072 11.736C66.0293 11.7573 65.9653 11.768 65.88 11.768C65.7307 11.768 65.6133 11.6933 65.528 11.544L64.632 9.976ZM71.16 12.44C70.904 12.44 70.776 12.312 70.776 12.056V10.68C70.776 10.424 70.904 10.296 71.16 10.296H87.288C87.544 10.296 87.672 10.424 87.672 10.68V12.056C87.672 12.312 87.544 12.44 87.288 12.44H71.16ZM77.048 18.648C75.4267 21.6347 73.816 24.0667 72.216 25.944C77.9973 25.624 83.0107 25.1973 87.256 24.664C86.36 23.448 85.304 22.2107 84.088 20.952C83.9813 20.8453 83.928 20.76 83.928 20.696C83.928 20.5893 84.0027 20.504 84.152 20.44L85.4 19.864C85.4853 19.8213 85.5493 19.8 85.592 19.8C85.6987 19.8 85.8053 19.8533 85.912 19.96C88.3227 22.2 90.4773 24.92 92.376 28.12C92.44 28.2267 92.472 28.3013 92.472 28.344C92.472 28.472 92.3867 28.568 92.216 28.632L90.616 29.272C90.5733 29.2933 90.5093 29.304 90.424 29.304C90.2747 29.304 90.168 29.2293 90.104 29.08C89.656 28.2907 89.176 27.4907 88.664 26.68C82.7547 27.4693 75.5333 28.0667 67 28.472H66.936C66.744 28.472 66.6267 28.3653 66.584 28.152L66.296 26.648L66.264 26.52C66.264 26.3493 66.3813 26.2427 66.616 26.2L69.112 26.104C70.0507 25.0587 70.968 23.8853 71.864 22.584C72.7813 21.2613 73.592 19.9493 74.296 18.648H65.912C65.656 18.648 65.528 18.52 65.528 18.264V16.792C65.528 16.536 65.656 16.408 65.912 16.408H92.056C92.312 16.408 92.44 16.536 92.44 16.792V18.264C92.44 18.52 92.312 18.648 92.056 18.648H77.048ZM116.888 29.432C116.632 29.432 116.504 29.304 116.504 29.048V13.048H110.296C110.04 13.048 109.912 12.92 109.912 12.664V11.224C109.912 10.968 110.04 10.84 110.296 10.84H116.504V0.567999C116.504 0.311998 116.632 0.183998 116.888 0.183998H118.328C118.584 0.183998 118.712 0.311998 118.712 0.567999V10.84H125.208C125.464 10.84 125.592 10.968 125.592 11.224V12.664C125.592 12.92 125.464 13.048 125.208 13.048H118.712V29.048C118.712 29.304 118.584 29.432 118.328 29.432H116.888ZM98.2 3.352C97.944 3.352 97.816 3.224 97.816 2.968V1.624C97.816 1.368 97.944 1.24 98.2 1.24H108.152C108.408 1.24 108.536 1.368 108.536 1.624V2.968C108.536 3.224 108.408 3.352 108.152 3.352H98.2ZM96.728 8.024C96.472 8.024 96.344 7.896 96.344 7.64V6.2C96.344 5.944 96.472 5.816 96.728 5.816H109.432C109.688 5.816 109.816 5.944 109.816 6.2V7.64C109.816 7.896 109.688 8.024 109.432 8.024H96.728ZM98.2 12.632C97.944 12.632 97.816 12.504 97.816 12.248V11C97.816 10.744 97.944 10.616 98.2 10.616H108.088C108.344 10.616 108.472 10.744 108.472 11V12.248C108.472 12.504 108.344 12.632 108.088 12.632H98.2ZM98.2 17.144C97.944 17.144 97.816 17.016 97.816 16.76V15.48C97.816 15.224 97.944 15.096 98.2 15.096H108.088C108.344 15.096 108.472 15.224 108.472 15.48V16.76C108.472 17.016 108.344 17.144 108.088 17.144H98.2ZM97.848 28.664C97.592 28.664 97.464 28.536 97.464 28.28V20.12C97.464 19.864 97.592 19.736 97.848 19.736H108.44C108.696 19.736 108.824 19.864 108.824 20.12V28.28C108.824 28.536 108.696 28.664 108.44 28.664H97.848ZM106.648 26.616V21.72H99.608V26.616H106.648ZM144.216 6.296H154.232C154.488 6.296 154.616 6.424 154.616 6.68V11.992C154.616 12.248 154.488 12.376 154.232 12.376H144.216V14.456H154.456C154.712 14.456 154.84 14.584 154.84 14.84V18.552H157.112C157.368 18.552 157.496 18.68 157.496 18.936V20.056C157.496 20.312 157.368 20.44 157.112 20.44H154.84V24.152C154.84 24.408 154.712 24.536 154.456 24.536H144.216V25.176C144.216 26.328 144.099 27.1813 143.864 27.736C143.629 28.312 143.128 28.728 142.36 28.984C141.613 29.24 140.451 29.368 138.872 29.368L137.72 29.336C137.507 29.336 137.347 29.24 137.24 29.048L136.792 27.864C136.771 27.8213 136.76 27.768 136.76 27.704C136.76 27.6187 136.792 27.544 136.856 27.48C136.92 27.4373 137.016 27.4267 137.144 27.448C137.443 27.4693 137.848 27.48 138.36 27.48C139.448 27.48 140.248 27.4053 140.76 27.256C141.293 27.1067 141.635 26.872 141.784 26.552C141.955 26.232 142.04 25.7627 142.04 25.144V24.536H131.032C130.776 24.536 130.648 24.408 130.648 24.152V23C130.648 22.744 130.776 22.616 131.032 22.616H142.04V20.408H128.92C128.664 20.408 128.536 20.28 128.536 20.024V18.968C128.536 18.712 128.664 18.584 128.92 18.584H142.04V16.344H131.096C130.84 16.344 130.712 16.216 130.712 15.96V14.84C130.712 14.584 130.84 14.456 131.096 14.456H142.04V12.376H131.96C131.704 12.376 131.576 12.248 131.576 11.992V6.68C131.576 6.424 131.704 6.296 131.96 6.296H142.04V4.312H129.368C129.112 4.312 128.984 4.184 128.984 3.928V2.904C128.984 2.648 129.112 2.52 129.368 2.52H142.04V0.599998C142.04 0.343999 142.168 0.216 142.424 0.216H143.832C144.088 0.216 144.216 0.343999 144.216 0.599998V2.52H156.76C157.016 2.52 157.144 2.648 157.144 2.904V3.928C157.144 4.184 157.016 4.312 156.76 4.312H144.216V6.296ZM142.04 10.584V8.088H133.496V10.584H142.04ZM152.696 8.088H144.216V10.584H152.696V8.088ZM152.824 16.344H144.216V18.616H152.824V16.344ZM152.824 20.408H144.216V22.616H152.824V20.408ZM173.976 14.584C173.933 14.4987 173.912 14.4347 173.912 14.392C173.912 14.2213 174.008 14.1253 174.2 14.104C176.675 13.464 178.701 12.568 180.28 11.416C178.787 10.0293 177.656 8.568 176.888 7.032C176.077 8.01333 175.203 8.856 174.264 9.56C174.179 9.624 174.093 9.656 174.008 9.656C173.923 9.656 173.827 9.60266 173.72 9.496L172.824 8.376C172.76 8.26933 172.728 8.184 172.728 8.12C172.728 8.03467 172.781 7.93867 172.888 7.832C174.125 6.872 175.203 5.76267 176.12 4.504C177.037 3.224 177.731 1.90133 178.2 0.535999C178.264 0.301332 178.413 0.205332 178.648 0.247999L180.152 0.407999C180.28 0.429332 180.365 0.482665 180.408 0.567999C180.472 0.653332 180.483 0.759999 180.44 0.887999C180.269 1.4 179.992 2.05066 179.608 2.84H188.952C189.208 2.84 189.336 2.968 189.336 3.224V4.376C189.336 4.632 189.208 4.76 188.952 4.76H187.064C186.424 7.384 185.251 9.58133 183.544 11.352C185.229 12.4187 187.192 13.2293 189.432 13.784C189.56 13.8267 189.645 13.8907 189.688 13.976C189.731 14.0613 189.72 14.1573 189.656 14.264L188.952 15.736C188.867 15.9493 188.696 16.024 188.44 15.96C186.072 15.256 183.907 14.2 181.944 12.792C180.088 14.2427 177.795 15.3413 175.064 16.088L174.904 16.12C174.776 16.12 174.659 16.0347 174.552 15.864L173.976 14.584ZM160.408 23.576C160.323 23.448 160.28 23.3627 160.28 23.32C160.28 23.256 160.323 23.16 160.408 23.032C161.496 21.7947 162.477 20.3227 163.352 18.616C164.227 16.9093 164.952 15.1387 165.528 13.304H160.888C160.632 13.304 160.504 13.176 160.504 12.92V11.608C160.504 11.352 160.632 11.224 160.888 11.224H167.736C166.904 10.392 166.029 9.592 165.112 8.824C164.216 8.056 163.405 7.448 162.68 7C162.552 6.936 162.488 6.85067 162.488 6.744C162.488 6.63733 162.541 6.552 162.648 6.488L163.576 5.656C163.661 5.57067 163.757 5.528 163.864 5.528C163.907 5.528 163.992 5.54933 164.12 5.592C165.037 6.21067 166.04 7 167.128 7.96C167.896 7.27733 168.6 6.53067 169.24 5.72C169.88 4.90933 170.381 4.13067 170.744 3.384H161.688C161.432 3.384 161.304 3.256 161.304 3V1.688C161.304 1.432 161.432 1.304 161.688 1.304H172.792C173.048 1.304 173.176 1.432 173.176 1.688V3C173.176 3.14933 173.144 3.30933 173.08 3.48C172.589 4.52533 171.949 5.56 171.16 6.584C170.392 7.58667 169.549 8.51467 168.632 9.368C169.144 9.816 169.763 10.4347 170.488 11.224H173.4C173.656 11.224 173.784 11.352 173.784 11.608V13.208C173.613 14.4667 173.347 15.7147 172.984 16.952C172.621 18.168 172.195 19.256 171.704 20.216C171.619 20.4293 171.448 20.4827 171.192 20.376L170.008 19.864C169.773 19.7787 169.709 19.608 169.816 19.352C170.307 18.4773 170.723 17.5067 171.064 16.44C171.405 15.3733 171.64 14.328 171.768 13.304H169.08V25.336C169.08 26.4453 168.931 27.288 168.632 27.864C168.333 28.44 167.832 28.8347 167.128 29.048C166.445 29.2827 165.453 29.4107 164.152 29.432C163.917 29.432 163.768 29.3253 163.704 29.112L163.128 27.608C163.107 27.5653 163.096 27.512 163.096 27.448C163.096 27.3627 163.128 27.288 163.192 27.224C163.256 27.1813 163.352 27.1707 163.48 27.192C164.483 27.2347 165.24 27.1813 165.752 27.032C166.264 26.904 166.605 26.68 166.776 26.36C166.947 26.0187 167.032 25.5387 167.032 24.92V23.544C167.032 21.7733 167.053 19.4587 167.096 16.6L167.128 14.008C166.552 16.056 165.827 18.0187 164.952 19.896C164.077 21.752 163.096 23.384 162.008 24.792C161.944 24.8773 161.859 24.92 161.752 24.92C161.645 24.92 161.549 24.8773 161.464 24.792L160.408 23.576ZM178.2 5.272C179.053 7.14933 180.269 8.76 181.848 10.104C183.299 8.65333 184.291 6.872 184.824 4.76H178.552L178.2 5.272ZM181.112 27.544C181.091 27.5013 181.08 27.448 181.08 27.384C181.08 27.2987 181.112 27.224 181.176 27.16C181.24 27.1173 181.336 27.1067 181.464 27.128C182.957 27.1707 184.024 27.0213 184.664 26.68C185.325 26.3387 185.731 25.656 185.88 24.632C185.965 24.0987 186.029 23.4053 186.072 22.552C186.115 21.6773 186.125 20.8773 186.104 20.152H181.592C181.101 22.328 180.227 24.184 178.968 25.72C177.709 27.2347 175.971 28.44 173.752 29.336C173.709 29.3573 173.645 29.368 173.56 29.368C173.453 29.368 173.347 29.3147 173.24 29.208L172.216 27.896C172.152 27.8107 172.12 27.7253 172.12 27.64C172.12 27.512 172.205 27.416 172.376 27.352C176.195 26.0507 178.52 23.6507 179.352 20.152H174.424C174.168 20.152 174.04 20.024 174.04 19.768V18.488C174.04 18.232 174.168 18.104 174.424 18.104H179.704C179.768 17.5067 179.821 16.5893 179.864 15.352C179.864 15.096 179.992 14.968 180.248 14.968L181.752 15C182.008 15 182.136 15.128 182.136 15.384C182.093 16.3227 182.029 17.2293 181.944 18.104H187.992C188.248 18.104 188.376 18.232 188.376 18.488C188.376 20.7707 188.312 22.6693 188.184 24.184C188.056 25.592 187.779 26.648 187.352 27.352C186.947 28.0773 186.328 28.568 185.496 28.824C184.685 29.08 183.544 29.1973 182.072 29.176C181.88 29.176 181.731 29.08 181.624 28.888L181.112 27.544ZM204.44 28.152C204.163 28.024 204.109 27.8427 204.28 27.608C205.709 25.5813 206.701 23.2027 207.256 20.472C207.811 17.72 208.088 14.4453 208.088 10.648C208.088 7 208.077 4.32267 208.056 2.616C208.056 2.36 208.184 2.232 208.44 2.232C213.133 2.104 216.835 1.57067 219.544 0.631998L219.704 0.599998C219.853 0.599998 219.96 0.695999 220.024 0.887999L220.568 2.392L220.6 2.552C220.6 2.72267 220.515 2.84 220.344 2.904C217.976 3.672 214.648 4.152 210.36 4.344C210.36 7.13867 210.371 9.10133 210.392 10.232H221.336C221.443 10.232 221.528 10.2747 221.592 10.36C221.677 10.424 221.72 10.5093 221.72 10.616V12.088C221.72 12.344 221.592 12.472 221.336 12.472H217.688V29.048C217.688 29.304 217.56 29.432 217.304 29.432H215.8C215.544 29.432 215.416 29.304 215.416 29.048V12.472H210.36C210.317 15.7787 210.008 18.776 209.432 21.464C208.856 24.1307 207.928 26.52 206.648 28.632C206.52 28.824 206.349 28.8773 206.136 28.792L204.44 28.152ZM192.824 2.008C192.824 1.752 192.952 1.624 193.208 1.624H205.848C206.104 1.624 206.232 1.752 206.232 2.008V3.448C206.232 3.704 206.104 3.832 205.848 3.832H193.208C192.952 3.832 192.824 3.704 192.824 3.448V2.008ZM192.632 28.568C192.419 28.4827 192.355 28.312 192.44 28.056C193.443 25.6027 193.987 22.04 194.072 17.368V14.2V7.896C194.072 7.64 194.2 7.512 194.456 7.512H204.824C205.08 7.512 205.208 7.64 205.208 7.896V17.304C205.208 17.56 205.08 17.688 204.824 17.688H196.248C196.163 22.5733 195.629 26.328 194.648 28.952C194.563 29.208 194.392 29.2827 194.136 29.176L192.632 28.568ZM203.096 9.72H196.216V15.416H203.096V9.72Z" fill="white"/>
</svg>
