<svg width="172" height="33" viewBox="0 0 172 33" fill="none" xmlns="http://www.w3.org/2000/svg">
<path d="M11.128 24.008V16.644H9.126C9.08867 18.296 8.75733 19.6727 8.132 20.774C7.516 21.8753 6.71333 22.7713 5.724 23.462C5.696 23.4247 5.63533 23.3593 5.542 23.266C5.44867 23.182 5.35067 23.0933 5.248 23C5.15467 22.9067 5.08467 22.8507 5.038 22.832C6.00867 22.216 6.78333 21.3853 7.362 20.34C7.94067 19.2947 8.23 17.9553 8.23 16.322V12.43C8.74333 12.402 9.30333 12.3367 9.91 12.234C10.526 12.1313 11.1187 12.0053 11.688 11.856C12.2667 11.7067 12.7567 11.548 13.158 11.38L13.648 12.15C13.2373 12.318 12.766 12.472 12.234 12.612C11.702 12.752 11.1607 12.8733 10.61 12.976C10.0687 13.0693 9.574 13.1393 9.126 13.186V15.79H13.928V16.644H11.996V24.008H11.128ZM1.622 24.05C1.58467 24.022 1.51 23.9753 1.398 23.91C1.286 23.8447 1.174 23.7793 1.062 23.714C0.959334 23.658 0.88 23.6253 0.824 23.616C1.33733 23.0093 1.71533 22.2533 1.958 21.348C2.20067 20.4333 2.322 19.4253 2.322 18.324V14.572H6.802V18.744H3.19C3.162 19.892 3.01267 20.8953 2.742 21.754C2.48067 22.6033 2.10733 23.3687 1.622 24.05ZM3.204 17.932H5.948V15.398H3.204V17.932ZM1.622 13.102V12.29H7.236V13.102H1.622ZM28.866 24.05C27.3073 23.63 25.9633 23 24.834 22.16C23.714 21.3107 22.9113 20.2 22.426 18.828H20.382V22.608C20.9793 22.4867 21.5487 22.3607 22.09 22.23C22.6313 22.0993 23.07 21.978 23.406 21.866V22.664C23.182 22.7387 22.874 22.8273 22.482 22.93C22.09 23.0327 21.656 23.14 21.18 23.252C20.7133 23.364 20.2373 23.4713 19.752 23.574C19.2667 23.6767 18.8093 23.7653 18.38 23.84C17.9507 23.924 17.5867 23.9847 17.288 24.022L17.036 23.168C17.316 23.1493 17.6707 23.1027 18.1 23.028C18.5387 22.9627 19.0053 22.8833 19.5 22.79V18.828H16.672V18.058H19.5V11.842H27.858V12.598H20.382V13.928H27.27V14.656H20.382V15.972H27.256V16.7H20.382V18.058H29.328V18.828H23.266C23.6393 19.6867 24.1713 20.4333 24.862 21.068C25.0767 20.9187 25.3147 20.7413 25.576 20.536C25.8467 20.3307 26.108 20.1207 26.36 19.906C26.612 19.682 26.8173 19.4813 26.976 19.304L27.62 19.878C27.452 20.0367 27.242 20.2233 26.99 20.438C26.738 20.6433 26.4767 20.8487 26.206 21.054C25.9353 21.25 25.688 21.4227 25.464 21.572C26.0147 21.9827 26.6167 22.328 27.27 22.608C27.9327 22.8787 28.6187 23.084 29.328 23.224C29.3 23.2613 29.2487 23.336 29.174 23.448C29.1087 23.5693 29.0433 23.686 28.978 23.798C28.922 23.9193 28.8847 24.0033 28.866 24.05Z" fill="#1D1D1D"/>
<path d="M152.814 25.9199C152.137 25.7507 151.553 25.3867 151.062 24.8281L149.869 23.5586C149.311 22.7799 149.031 21.8743 149.031 20.8418L149.311 20.7402L149.768 21.9336L150.148 22.5684C150.758 23.5332 151.553 24.2611 152.535 24.752C153.635 23.3639 154.49 21.8659 155.1 20.2578C155.726 18.6497 156.132 16.9655 156.318 15.2051L154.668 15.0273C153.855 15.0781 153.077 15.2559 152.332 15.5605C151.604 15.8652 150.876 16.1699 150.148 16.4746C149.708 16.3561 149.488 16.1107 149.488 15.7383C149.979 15.0104 150.436 14.2741 150.859 13.5293C151.299 12.7676 151.646 11.9635 151.9 11.1172L151.418 10.9395L150.885 11.0156L150.428 10.6602V10.3047L152.256 9.74609L152.535 9.84766L154.922 9.00977C155.667 7.74023 156.251 6.3776 156.674 4.92188C156.437 4.7526 156.132 4.69336 155.76 4.74414C154.423 5.08268 153.068 5.26888 151.697 5.30273L150.961 5.02344L150.783 4.28711L151.24 4.10938L153.373 4.28711L157.41 3.65234L157.791 3.93164L157.969 4.28711C157.918 5.26888 157.689 6.16602 157.283 6.97852C156.877 7.79102 156.462 8.59505 156.039 9.39062L156.318 9.84766L156.141 10.3047C155.396 10.3047 154.685 10.4232 154.008 10.6602L153.449 10.4824C153.145 11.2611 152.806 12.0143 152.434 12.7422C152.078 13.4701 151.68 14.1979 151.24 14.9258H151.621C152.908 14.2656 154.38 13.9948 156.039 14.1133L157.41 14.3926L157.689 15.2051C157.334 16.9655 156.826 18.6497 156.166 20.2578C155.523 21.8659 154.71 23.4232 153.729 24.9297L153.449 25.0312C153.331 25.3867 153.119 25.6829 152.814 25.9199ZM152.713 25.3867V25.1074H152.434V25.3867H152.713ZM151.621 24.5742V24.2949L151.164 24.1934L151.062 24.4727L151.621 24.5742ZM171.35 24.2949C170.486 23.4993 169.902 22.6191 169.598 21.6543C169.039 21.6712 168.48 21.612 167.922 21.4766C166.822 21.832 165.688 22.1367 164.52 22.3906L164.24 22.2891C163.191 22.543 162.141 22.8138 161.092 23.1016C160.059 23.4062 159.018 23.7109 157.969 24.0156L157.791 23.3047L158.426 22.3906C159.424 19.6654 160.457 16.974 161.523 14.3164C162.607 11.6419 163.208 8.8151 163.326 5.83594L162.133 5.20117L161.93 4.74414L162.59 4.38867C163.148 4.50716 163.673 4.7526 164.164 5.125C164.401 5.48047 164.486 5.92904 164.418 6.4707C164.113 9.26367 163.419 11.9635 162.336 14.5703C161.27 17.1771 160.279 19.7839 159.365 22.3906L159.721 22.4668C161.193 22.1113 162.666 21.7728 164.139 21.4512C165.628 21.1126 167.109 20.8164 168.582 20.5625L168.658 20.207C167.812 19.293 167.143 18.3197 166.652 17.2871L166.83 16.9316H167.109C167.888 17.6934 168.624 18.5143 169.318 19.3945C169.995 20.4779 170.698 21.5697 171.426 22.6699L171.984 23.4824L171.705 24.1934L171.35 24.2949ZM149.768 22.4668L149.869 22.2129H149.59L149.768 22.4668ZM156.039 9.66992V9.39062H155.76V9.66992H156.039Z" fill="#1D1D1D"/>
<path d="M142.014 27.3926C140.71 26.8509 139.475 26.2161 138.307 25.4883C137.206 24.6927 136.199 23.804 135.285 22.8223C134.608 23.2454 133.88 23.5755 133.102 23.8125C132.34 24.0664 131.587 24.3457 130.842 24.6504L130.562 24.4727C131.307 24.1003 132.001 23.7109 132.645 23.3047C133.288 22.9154 133.948 22.5091 134.625 22.0859L134.727 21.7305C134.354 21.0534 133.999 20.3509 133.66 19.623C133.322 18.8952 133.034 18.1589 132.797 17.4141L131.502 17.3379C130.385 17.5241 129.276 17.7949 128.176 18.1504L127.998 19.3438H128.277L128.734 19.166L128.811 19.5215L127.82 20.4355L127.439 22.7207C127.558 23.7702 127.744 24.752 127.998 25.666L127.439 26.1992H127.059L126.805 25.7422C125.755 25.1328 124.613 24.8027 123.377 24.752V24.4727L124.393 24.1934L126.525 24.5742C126.204 23.4909 126.17 22.416 126.424 21.3496L126.145 21.2734C125.23 21.8151 124.401 22.4837 123.656 23.2793L122.818 23.5586L120.533 23L120.432 22.7207L120.99 22.1875H121.828L122.641 22.2637C123.876 21.6543 125.104 20.9857 126.322 20.2578C126.508 19.7669 126.669 19.2507 126.805 18.709C126.551 18.5228 126.271 18.4635 125.967 18.5312C125.036 18.7682 124.113 19.0983 123.199 19.5215L121.828 18.6074L121.727 17.9727L122.361 17.7949L123.479 18.252C124.46 17.6934 125.569 17.3887 126.805 17.3379L126.982 16.043L126.881 15.5098C125.781 15.679 124.799 15.9329 123.936 16.2715C123.072 16.61 122.184 16.8978 121.27 17.1348C122.302 16.4746 123.343 15.8737 124.393 15.332C125.442 14.7734 126.492 14.1556 127.541 13.4785L127.617 13.123L127.541 12.666L128.633 12.2852L129.191 12.666L129.369 13.3008C129.064 13.7917 128.633 14.1895 128.074 14.4941H127.719V14.7734C128.142 15.3828 128.328 16.0514 128.277 16.7793L128.811 16.8809C129.979 16.5085 131.214 16.263 132.518 16.1445L132.594 14.8496L132.416 14.4941L132.518 14.0371L132.137 13.123L131.578 13.0215L131.324 13.123L130.842 12.4883C131.214 12.1159 131.739 11.9635 132.416 12.0312L132.975 12.2852C133.584 13.3854 133.923 14.5788 133.99 15.8652L134.27 15.9668L135.006 15.8652L135.285 15.9668L138.307 15.4082L138.789 15.6875L138.865 16.1445L138.688 16.6777C137.181 16.7454 135.674 16.8724 134.168 17.0586V17.6934C134.659 18.7936 135.184 19.8939 135.742 20.9941L136.021 21.0957L136.301 20.7148C136.978 20.2917 137.528 19.7415 137.951 19.0645L138.053 18.252L138.789 18.0742L139.246 18.4297V19.166L137.672 21.0957L136.479 22.0098C137.088 22.9238 137.79 23.6348 138.586 24.1426C139.398 24.6673 140.169 25.2005 140.896 25.7422L141.633 25.9453L141.734 25.5645C141.734 24.6504 141.582 23.8294 141.277 23.1016L142.014 23.457C142.623 24.3711 142.928 25.3783 142.928 26.4785L142.471 27.3164L142.014 27.3926ZM121.346 22.543V22.2637H121.066V22.543H121.346ZM140.896 15.7637C139.729 15.0358 138.501 14.401 137.215 13.8594L137.113 13.3008L137.393 12.9453H138.053C139.153 13.6055 140.287 14.1556 141.455 14.5957L141.557 15.1289L141.354 15.6875L140.896 15.7637ZM137.773 13.3008V13.0215H137.494V13.3008H137.773ZM124.951 12.3867C124.206 12.319 123.563 12.0736 123.021 11.6504L122.818 11.1172L123.098 10.7363C124.892 11.2441 126.712 11.1849 128.557 10.5586L128.811 10.6348L130.309 10.3809L130.486 9.36523L130.385 9.00977L130.486 8.73047L130.029 8.55273C129.166 8.9082 128.21 9.08594 127.16 9.08594L126.703 8.62891V8.27344C127.871 7.90104 129.098 7.62174 130.385 7.43555L130.486 6.69922L130.385 5.98828H129.369C128.387 6.46224 127.287 6.69922 126.068 6.69922L124.672 5.98828L124.494 5.42969L125.053 5.07422C125.73 5.42969 126.492 5.58203 127.338 5.53125L128.811 5.25195C127.896 4.15169 127.228 3.01758 126.805 1.84961C127.042 1.68034 127.312 1.62109 127.617 1.67188C127.99 1.79036 128.176 2.03581 128.176 2.4082C128.853 3.20378 129.378 4.02474 129.75 4.87109L130.562 4.97266L131.68 4.69336C131.68 4.32096 131.832 4.01628 132.137 3.7793L132.695 3.5L133.812 2.12891V1.67188L133.076 1.21484L132.873 0.757812L133.152 0.402344H133.609L134.904 1.21484L135.082 1.84961L134.27 3.32227C133.592 3.93164 132.788 4.29557 131.857 4.41406V4.69336H132.416L136.021 4.33789L136.555 4.69336V4.97266L136.301 5.53125L135.361 5.70898L134.27 5.53125C133.339 5.53125 132.441 5.61589 131.578 5.78516V6.06445L131.857 7.15625L133.33 7.25781L134.27 7.08008L134.625 7.35938V7.71484L134.549 8.17188C133.923 8.42578 133.245 8.51888 132.518 8.45117L132.238 8.34961L131.781 8.55273L131.68 10C132.475 10.3047 133.339 10.4316 134.27 10.3809C135.624 10.3301 136.969 10.1777 138.307 9.92383L138.865 10.2793V10.5586C138.628 10.6771 138.535 10.9225 138.586 11.2949C137.486 11.2949 136.445 11.4134 135.463 11.6504L134.346 11.4727C133.618 11.6589 132.856 11.7181 132.061 11.6504L131.781 11.5742C130.613 11.6927 129.454 11.8027 128.303 11.9043C127.169 11.9889 126.051 12.1497 124.951 12.3867Z" fill="#1D1D1D"/>
<path d="M102.498 26.1992L101.838 25.7168L101.559 23.3809C100.645 23.0085 99.6458 22.7969 98.5625 22.7461C97.4792 22.6784 96.3789 22.6445 95.2617 22.6445C94.3984 22.763 93.5352 22.873 92.6719 22.9746C91.8086 23.0592 90.9792 23.1947 90.1836 23.3809C89.5065 23.2962 88.8294 23.3301 88.1523 23.4824C87.2891 23.6009 86.4512 23.7871 85.6387 24.041C84.8431 24.2949 84.0475 24.5742 83.252 24.8789L83.0488 24.5996L82.7695 24.498L82.5918 23.9395C83.2689 23.1947 83.5905 22.3314 83.5566 21.3496C83.5397 20.3509 83.5312 19.3522 83.5312 18.3535C83.4635 17.1178 83.0573 16.0007 82.3125 15.002L81.5762 14.3418V14.0625C81.7624 13.7578 82.0417 13.6055 82.4141 13.6055L83.9883 14.8242C84.3607 15.6367 84.5892 16.4915 84.6738 17.3887C84.7754 18.2858 84.7923 19.1999 84.7246 20.1309L84.5469 22.6445C84.7839 22.8307 85.0885 22.89 85.4609 22.8223C86.4427 22.5853 87.4329 22.3398 88.4316 22.0859L88.8887 22.1875L92.3164 21.7051C92.3333 18.9121 92.4264 16.1191 92.5957 13.3262C92.6634 11.752 92.6296 10.1693 92.4941 8.57812L92.5957 8.29883L92.4941 7.5625L92.6719 4.38867C92.181 4.06706 91.9694 3.62695 92.0371 3.06836L92.7734 2.78906C93.1458 3.22917 93.5436 3.50846 93.9668 3.62695L94.1699 4.94727C93.9837 6.11523 93.8568 7.35938 93.7891 8.67969L93.8906 8.95898L93.7891 9.23828L93.8906 9.51758C93.7044 11.752 93.6113 13.9863 93.6113 16.2207C93.5775 17.9811 93.6706 19.7161 93.8906 21.4258L94.5254 21.5273L95.1855 21.3496L95.7441 21.4258L96.7598 21.3496C97.623 21.3496 98.4694 21.4258 99.2988 21.5781C100.128 21.7305 100.975 21.8659 101.838 21.9844C102.092 20.8164 102.278 19.6146 102.396 18.3789C102.515 17.1263 102.642 15.8737 102.777 14.6211L102.396 13.707C101.973 13.5716 101.787 13.2923 101.838 12.8691L102.396 12.7676L102.498 12.4883H102.777L103.133 12.9453L103.793 13.2246C104.03 14.1556 104.123 15.1882 104.072 16.3223C103.886 17.3717 103.708 18.4297 103.539 19.4961C103.387 20.5456 103.285 21.5951 103.234 22.6445C103.539 22.8984 103.632 23.2116 103.514 23.584C103.26 23.821 103.167 24.1595 103.234 24.5996L103.311 25.5391L102.777 26.1992H102.498Z" fill="#1D1D1D"/>
<path d="M70.4707 27.8496C69.3535 27.4772 68.2702 27.0202 67.2207 26.4785L66.8652 25.6406L67.2207 25.5391C67.8978 26.1654 68.7357 26.4447 69.7344 26.377C69.5482 24.9043 69.4805 23.4316 69.5312 21.959C68.7357 21.7728 67.8893 21.6628 66.9922 21.6289C66.0951 21.5951 65.1895 21.5781 64.2754 21.5781C63.1582 21.832 62.1087 22.2298 61.127 22.7715L60.8477 26.5547L60.9492 27.0117L60.7461 27.3926L59.9082 27.5703C59.485 27.1979 59.3327 26.7409 59.4512 26.1992C59.6712 24.3034 59.7643 22.3991 59.7305 20.4863C59.6628 19.4876 59.5866 18.5143 59.502 17.5664C59.4173 16.6185 59.1888 15.7129 58.8164 14.8496L59.375 14.291L60.4668 15.4082H60.7461C62.3542 15.1035 63.9876 14.7988 65.6465 14.4941C67.3223 14.1725 68.9642 13.834 70.5723 13.4785C70.9277 13.9694 71.0462 14.5534 70.9277 15.2305L70.6484 17.7188L70.75 17.998C70.6992 18.7936 70.6654 19.5892 70.6484 20.3848L70.75 21.0195L70.6484 24.0664L70.9277 24.7266L70.8262 25.6406L71.207 27.2148L70.4707 27.8496ZM64.834 20.4863C66.002 20.4694 67.1699 20.4694 68.3379 20.4863L68.6172 20.5625L69.0742 20.3848L69.3535 20.4863L69.5312 19.8262L69.3535 18.252H69.0742L68.1602 18.4551C67.8555 18.2012 67.4831 18.0742 67.043 18.0742C66.0612 18.3281 65.071 18.5312 64.0723 18.6836C63.0905 18.8359 62.168 19.1237 61.3047 19.5469L61.0254 19.4707L60.9492 19.75L61.127 21.2227H61.6855C62.6673 20.8503 63.7168 20.6048 64.834 20.4863ZM61.127 18.3535C62.1764 17.9811 63.2682 17.7018 64.4023 17.5156C65.5534 17.3294 66.679 17.1771 67.7793 17.0586L68.0586 17.1602C68.6172 17.0924 69.0827 16.9401 69.4551 16.7031V15.1289L69.252 14.748H68.7949C67.5085 15.1882 66.1712 15.5182 64.7832 15.7383C63.3952 15.9414 62.0833 16.2884 60.8477 16.7793L60.7461 17.4395L61.127 18.3535ZM54.2715 14.8496C53.5267 14.5449 52.7904 14.2402 52.0625 13.9355L51.9609 13.377C52.2656 13.0723 52.6634 12.9453 53.1543 12.9961C53.6621 13.3685 54.2799 13.4954 55.0078 13.377C56.4297 13.0046 57.8516 12.666 59.2734 12.3613C60.6953 12.0566 62.1426 11.7773 63.6152 11.5234L63.8945 10.2285C63.8945 9.56836 63.776 9.01823 63.5391 8.57812C62.3034 9.06901 61.0677 9.5345 59.832 9.97461L59.5527 9.59375L58.5371 9.13672L58.2578 8.40039C58.4948 8.14648 58.8333 8.05339 59.2734 8.12109L60.1875 8.50195C61.4232 8.06185 62.7181 7.68945 64.0723 7.38477V6.82617L63.8945 6.08984L63.4375 5.98828C62.0833 6.3099 60.7292 6.64844 59.375 7.00391C58.8164 6.64844 58.224 6.34375 57.5977 6.08984L57.4199 5.35352L57.6992 4.99805H58.334C58.8418 5.48893 59.4596 5.66667 60.1875 5.53125C61.4909 5.17578 62.7858 4.83724 64.0723 4.51562L64.1738 2.6875L64.0723 2.4082L62.4219 1.74805L62.2441 1.21484L62.498 0.833984H63.1582L65.3672 1.74805C65.5534 2.42513 65.6211 3.16992 65.5703 3.98242L65.4688 4.23633L65.9258 4.33789C66.7383 4.15169 67.5423 3.96549 68.3379 3.7793C69.1335 3.5931 69.9629 3.5 70.8262 3.5L71.3086 3.88086L71.3848 4.51562L70.75 5.07422C68.9388 4.71875 67.1445 4.90495 65.3672 5.63281L65.291 6.82617L65.8496 7.10547C66.5267 6.86849 67.263 6.75 68.0586 6.75L68.6172 7.10547V7.74023L68.3379 8.29883L67.3223 8.57812C67.0176 8.15495 66.5859 8.0026 66.0273 8.12109L65.3672 8.40039C65.1979 9.31445 65.1387 10.2624 65.1895 11.2441H65.8496C67.0853 11.1934 68.2533 11.0326 69.3535 10.7617C70.4707 10.474 71.6725 10.3639 72.959 10.4316L73.416 10.5078C73.9746 10.2708 74.5924 10.1777 75.2695 10.2285L75.752 10.5078L75.8281 11.168L75.4727 10.9902L75.2695 11.625H74.9902L74.1777 11.4473C73.6699 11.6335 73.1452 11.7266 72.6035 11.7266L72.3242 11.625L71.8672 11.7266L71.3848 11.625C68.4902 12.0482 65.6042 12.4798 62.7266 12.9199C59.8659 13.3431 57.0475 13.9863 54.2715 14.8496ZM71.1055 4.43945L71.207 4.05859H70.9277V4.43945H71.1055Z" fill="#1D1D1D"/>
</svg>
